<?xml version="1.0" encoding="UTF-8"?>
<!DOCTYPE svg PUBLIC "-//W3C//DTD SVG 1.1//EN" "http://www.w3.org/Graphics/SVG/1.1/DTD/svg11.dtd">
<!-- Creator: CorelDRAW X5 -->
<svg xmlns="http://www.w3.org/2000/svg" xml:space="preserve" width="300px" height="400px" style="shape-rendering:geometricPrecision; text-rendering:geometricPrecision; image-rendering:optimizeQuality; fill-rule:evenodd; clip-rule:evenodd"
viewBox="0 0 300 400"
 xmlns:xlink="http://www.w3.org/1999/xlink">
 <defs>
  <style type="text/css">
   <![CDATA[
    .str0 {stroke:black;stroke-width:2.99981}
    .fil1 {fill:black}
    .fil0 {fill:white}
   ]]>
  </style>
 </defs>
 <g id="Layer_x0020_1">
  <metadata id="CorelCorpID_0Corel-Layer"/>
  <rect class="fil0 str0" x="38" y="44" width="224" height="312" rx="10" ry="10"/>
  <path class="fil1" d="M145 274c0,-4 -3,-4 -3,-1 0,16 -14,24 -23,22 -15,-3 -20,-18 -20,-27 0,-27 28,-47 52,-82 18,31 48,56 50,80 2,32 -38,44 -44,7 0,-3 -4,-4 -3,0 1,10 0,15 11,40l-30 0c7,-12 11,-26 11,-39z"/>
  <path class="fil1" d="M127 160l0 -5c1,-15 5,-21 24,-37 9,-8 12,-12 13,-16 1,-10 -8,-14 -14,-14 -8,0 -17,5 -13,16l-9 3c-2,-10 0,-20 8,-24 11,-6 26,-3 33,5 5,6 6,14 3,21 -8,16 -34,24 -36,43l29 0 0 -11 8 0 0 19 -47 0z"/>
 </g>
</svg>
