<?xml version="1.0" encoding="UTF-8"?>
<!DOCTYPE svg PUBLIC "-//W3C//DTD SVG 1.1//EN" "http://www.w3.org/Graphics/SVG/1.1/DTD/svg11.dtd">
<!-- Creator: CorelDRAW X5 -->
<svg xmlns="http://www.w3.org/2000/svg" xml:space="preserve" width="300px" height="400px" style="shape-rendering:geometricPrecision; text-rendering:geometricPrecision; image-rendering:optimizeQuality; fill-rule:evenodd; clip-rule:evenodd"
viewBox="0 0 300 400"
 xmlns:xlink="http://www.w3.org/1999/xlink">
 <defs>
  <style type="text/css">
   <![CDATA[
    .str0 {stroke:black;stroke-width:2.99981}
    .fil1 {fill:black}
    .fil0 {fill:white}
   ]]>
  </style>
 </defs>
 <g id="Layer_x0020_1">
  <metadata id="CorelCorpID_0Corel-Layer"/>
  <rect class="fil0 str0" x="38" y="44" width="224" height="312" rx="10" ry="10"/>
  <path class="fil1" d="M123 143l6 -5c5,9 12,15 21,14 14,-1 20,-15 17,-26 -3,-10 -15,-15 -24,-9 -2,1 -4,2 -5,2 -1,0 -3,-4 -3,-6 6,-9 21,-25 21,-25l-24 0 0 10 -9 0 0 -19 46 0 0 6c0,0 -12,13 -16,20 10,0 18,7 21,17 2,5 1,17 -1,22 -4,9 -14,16 -23,16 -16,1 -24,-10 -28,-18z"/>
  <path class="fil1" d="M131 323c7,-15 13,-30 14,-46 1,-6 -3,-6 -3,-2 -10,40 -66,29 -64,-8 2,-30 32,-37 48,-27 6,4 6,1 2,-2 -23,-26 -9,-60 22,-60 34,2 43,38 22,59 -3,3 -8,11 0,5 21,-15 51,1 50,24 -1,43 -53,46 -65,10 -1,-4 -4,-6 -3,1 2,12 5,31 14,47l-37 0z"/>
 </g>
</svg>
