<?xml version="1.0" encoding="UTF-8"?>
<!DOCTYPE svg PUBLIC "-//W3C//DTD SVG 1.1//EN" "http://www.w3.org/Graphics/SVG/1.1/DTD/svg11.dtd">
<!-- Creator: CorelDRAW X5 -->
<svg xmlns="http://www.w3.org/2000/svg" xml:space="preserve" width="300px" height="400px" style="shape-rendering:geometricPrecision; text-rendering:geometricPrecision; image-rendering:optimizeQuality; fill-rule:evenodd; clip-rule:evenodd"
viewBox="0 0 300 400"
 xmlns:xlink="http://www.w3.org/1999/xlink">
 <defs>
  <style type="text/css">
   <![CDATA[
    .str0 {stroke:black;stroke-width:2.99981}
    .fil1 {fill:#D40000}
    .fil0 {fill:white}
   ]]>
  </style>
 </defs>
 <g id="Layer_x0020_1">
  <metadata id="CorelCorpID_0Corel-Layer"/>
  <rect class="fil0 str0" x="38" y="44" width="224" height="312" rx="10" ry="10"/>
  <path class="fil1" d="M151 160l0 -7 7 0 0 -12 -33 0 0 -8 35 -53 6 0 0 53 10 0 0 8 -10 0 0 12 5 0 0 7 -20 0zm7 -61l-23 34 23 0 0 -34z"/>
  <path class="fil1" d="M119 176c18,-1 28,14 30,27 1,2 2,1 2,0 1,-16 15,-29 28,-27 21,0 34,24 31,44 -4,25 -18,39 -28,55 -11,16 -27,39 -31,49 0,0 -15,-24 -36,-51 -13,-19 -24,-39 -25,-56 -1,-20 7,-37 29,-41z"/>
 </g>
</svg>
