<?xml version="1.0" encoding="UTF-8"?>
<!DOCTYPE svg PUBLIC "-//W3C//DTD SVG 1.1//EN" "http://www.w3.org/Graphics/SVG/1.1/DTD/svg11.dtd">
<!-- Creator: CorelDRAW X5 -->
<svg xmlns="http://www.w3.org/2000/svg" xml:space="preserve" width="300px" height="400px" style="shape-rendering:geometricPrecision; text-rendering:geometricPrecision; image-rendering:optimizeQuality; fill-rule:evenodd; clip-rule:evenodd"
viewBox="0 0 300 400"
 xmlns:xlink="http://www.w3.org/1999/xlink">
 <defs>
  <style type="text/css">
   <![CDATA[
    .str0 {stroke:black;stroke-width:2.99981}
    .fil1 {fill:black}
    .fil0 {fill:white}
   ]]>
  </style>
 </defs>
 <g id="Layer_x0020_1">
  <metadata id="CorelCorpID_0Corel-Layer"/>
  <rect class="fil0 str0" x="38" y="44" width="224" height="312" rx="10" ry="10"/>
  <path class="fil1" d="M124 139l8 0c2,5 5,10 10,11 13,3 21,-4 24,-13 3,-10 0,-24 -9,-30 -7,-4 -19,-1 -24,8l-6 -3 3 -34 37 0 0 8 -30 0 0 14c6,-5 16,-4 23,-1 12,6 18,19 15,35 -3,15 -11,24 -27,25 -18,0 -25,-12 -24,-21z"/>
  <path class="fil1" d="M131 323c7,-15 13,-30 14,-46 1,-6 -3,-6 -3,-2 -10,40 -66,29 -64,-8 2,-30 32,-37 48,-27 6,4 6,1 2,-2 -23,-26 -9,-60 22,-60 34,2 43,38 22,59 -3,3 -8,11 0,5 21,-15 51,1 50,24 -1,43 -53,46 -65,10 -1,-4 -4,-6 -3,1 2,12 5,31 14,47l-37 0z"/>
 </g>
</svg>
