<?xml version="1.0" encoding="UTF-8"?>
<!DOCTYPE svg PUBLIC "-//W3C//DTD SVG 1.1//EN" "http://www.w3.org/Graphics/SVG/1.1/DTD/svg11.dtd">
<!-- Creator: CorelDRAW X5 -->
<svg xmlns="http://www.w3.org/2000/svg" xml:space="preserve" width="300px" height="400px" style="shape-rendering:geometricPrecision; text-rendering:geometricPrecision; image-rendering:optimizeQuality; fill-rule:evenodd; clip-rule:evenodd"
viewBox="0 0 300 400"
 xmlns:xlink="http://www.w3.org/1999/xlink">
 <defs>
  <style type="text/css">
   <![CDATA[
    .str0 {stroke:black;stroke-width:2.99981}
    .fil1 {fill:black}
    .fil0 {fill:white}
   ]]>
  </style>
 </defs>
 <g id="Layer_x0020_1">
  <metadata id="CorelCorpID_0Corel-Layer"/>
  <rect class="fil0 str0" x="38" y="44" width="224" height="312" rx="10" ry="10"/>
  <path class="fil1" d="M145 274c0,-4 -3,-4 -3,-1 0,16 -14,24 -23,22 -15,-3 -20,-18 -20,-27 0,-27 28,-47 52,-82 18,31 48,56 50,80 2,32 -38,44 -44,7 0,-3 -4,-4 -3,0 1,10 0,15 11,40l-30 0c7,-12 11,-26 11,-39z"/>
  <path class="fil1" d="M123 137c0,-11 4,-15 12,-21 -6,-4 -9,-11 -8,-17 1,-13 12,-20 23,-20 12,0 22,9 22,19 1,9 -2,13 -8,17 7,6 12,10 12,21 0,11 -9,23 -26,24 -16,0 -28,-13 -28,-24zm45 0c1,-10 -8,-16 -18,-17 -10,0 -18,8 -18,17 0,9 11,15 19,15 9,0 17,-6 18,-15zm-3 -35c0,-8 -8,-14 -16,-14 -7,0 -15,6 -15,12 0,9 9,13 16,13 7,0 14,-5 14,-12z"/>
 </g>
</svg>
