<?xml version="1.0" encoding="UTF-8"?>
<!DOCTYPE svg PUBLIC "-//W3C//DTD SVG 1.1//EN" "http://www.w3.org/Graphics/SVG/1.1/DTD/svg11.dtd">
<!-- Creator: CorelDRAW X5 -->
<svg xmlns="http://www.w3.org/2000/svg" xml:space="preserve" width="300px" height="400px" style="shape-rendering:geometricPrecision; text-rendering:geometricPrecision; image-rendering:optimizeQuality; fill-rule:evenodd; clip-rule:evenodd"
viewBox="0 0 300 400"
 xmlns:xlink="http://www.w3.org/1999/xlink">
 <defs>
  <style type="text/css">
   <![CDATA[
    .str0 {stroke:black;stroke-width:2.99981}
    .fil1 {fill:#D40000}
    .fil0 {fill:white}
   ]]>
  </style>
 </defs>
 <g id="Layer_x0020_1">
  <metadata id="CorelCorpID_0Corel-Layer"/>
  <rect class="fil0 str0" x="38" y="44" width="224" height="312" rx="10" ry="10"/>
  <path class="fil1" d="M127 145l8 -2c3,7 9,10 15,9 11,-1 14,-13 15,-23 -4,4 -11,7 -16,6 -17,-1 -22,-15 -22,-29 0,-12 5,-21 13,-25 5,-2 15,-2 20,0 11,5 15,15 14,38 0,19 -4,40 -24,41 -12,2 -21,-7 -22,-15zm30 -20c4,-2 6,-4 7,-7 1,-3 2,-4 1,-9 -1,-14 -8,-21 -19,-20 -6,1 -9,4 -11,10 -3,11 1,24 9,27 4,1 9,1 12,-1z"/>
  <path class="fil1" d="M93 249c25,25 42,52 58,78 14,-29 34,-54 56,-78 -23,-24 -41,-50 -56,-77 -16,28 -33,53 -58,77z"/>
 </g>
</svg>
