<?xml version="1.0" encoding="UTF-8"?>
<!DOCTYPE svg PUBLIC "-//W3C//DTD SVG 1.1//EN" "http://www.w3.org/Graphics/SVG/1.1/DTD/svg11.dtd">
<!-- Creator: CorelDRAW X5 -->
<svg xmlns="http://www.w3.org/2000/svg" xml:space="preserve" width="300px" height="400px" style="shape-rendering:geometricPrecision; text-rendering:geometricPrecision; image-rendering:optimizeQuality; fill-rule:evenodd; clip-rule:evenodd"
viewBox="0 0 300 400"
 xmlns:xlink="http://www.w3.org/1999/xlink">
 <defs>
  <style type="text/css">
   <![CDATA[
    .str0 {stroke:black;stroke-width:2.99981}
    .fil1 {fill:#D40000}
    .fil0 {fill:white}
   ]]>
  </style>
 </defs>
 <g id="Layer_x0020_1">
  <metadata id="CorelCorpID_0Corel-Layer"/>
  <rect class="fil0 str0" x="38" y="44" width="224" height="312" rx="10" ry="10"/>
  <path class="fil1" d="M132 134l-7 0 0 -9 7 0c0,0 0,-5 0,-14 0,-19 1,-22 6,-27 11,-10 29,-2 29,13 0,21 0,42 -1,45 -1,5 -1,5 -1,6 1,2 9,3 9,2l0 9c-6,0 -9,0 -14,-4 -3,3 -13,6 -20,2 -6,-3 -10,-10 -9,-25zm23 16c-3,-5 -9,-11 -15,-14 0,6 0,10 2,13 3,4 8,5 12,1zm3 -53c-3,-7 -9,-9 -14,-5 -3,3 -3,6 -4,21 0,10 0,14 0,14 9,3 18,13 18,13l0 -29c0,-5 0,-9 -1,-14z"/>
  <path class="fil1" d="M93 249c25,25 42,52 58,78 14,-29 34,-54 56,-78 -23,-24 -41,-50 -56,-77 -16,28 -33,53 -58,77z"/>
 </g>
</svg>
