<?xml version="1.0" encoding="UTF-8"?>
<!DOCTYPE svg PUBLIC "-//W3C//DTD SVG 1.1//EN" "http://www.w3.org/Graphics/SVG/1.1/DTD/svg11.dtd">
<!-- Creator: CorelDRAW X5 -->
<svg xmlns="http://www.w3.org/2000/svg" xml:space="preserve" width="31mm" height="43mm" style="shape-rendering:geometricPrecision; text-rendering:geometricPrecision; image-rendering:optimizeQuality; fill-rule:evenodd; clip-rule:evenodd"
viewBox="0 0 3100 4300"
 xmlns:xlink="http://www.w3.org/1999/xlink">
 <defs>
  <style type="text/css">
   <![CDATA[
    .str0 {stroke:#373F6A;stroke-width:20}
    .fil3 {fill:#373F6A}
    .fil0 {fill:#FEFEFE}
    .fil1 {fill:#212123;fill-rule:nonzero}
    .fil2 {fill:#373F6A;fill-rule:nonzero}
   ]]>
  </style>
 </defs>
 <g id="Layer_x0020_1">
  <metadata id="CorelCorpID_0Corel-Layer"/>
  <g>
   <path class="fil0" d="M194 50l2713 0c79,0 143,64 143,144l0 3913c0,79 -64,144 -143,144l-2713 0c-79,0 -144,-64 -144,-144l0 -3913c0,-79 64,-144 144,-144z"/>
   <path id="1" class="fil1" d="M2907 75l-2713 0 0 -50 2713 0 0 0 0 50zm168 119l-50 0 0 0 0 -6 0 -6 -1 -6 -1 -6 -1 -6 -2 -6 -2 -6 -2 -5 -2 -5 -3 -5 -3 -5 -3 -5 -3 -5 -4 -4 -4 -4 -4 -4 -4 -4 -4 -4 -4 -4 -5 -3 -5 -3 -5 -3 -5 -3 -5 -2 -5 -2 -6 -2 -6 -2 -6 -1 -6 -1 -6 -1 -6 0 -6 0 0 -50 9 0 9 1 8 1 8 1 8 2 8 2 8 3 8 3 7 3 7 4 7 4 7 4 7 5 6 5 6 5 6 6 6 6 5 6 5 6 5 7 4 7 4 7 4 7 3 7 3 8 3 8 2 8 2 8 1 8 1 8 1 9 0 9 0 0zm-50 3913l0 -3913 50 0 0 3913 0 0 -50 0zm-118 169l0 -50 0 0 6 0 6 0 6 -1 6 -1 6 -1 6 -2 6 -2 5 -2 5 -2 5 -3 5 -3 5 -3 5 -3 5 -4 4 -4 4 -4 4 -4 4 -4 4 -4 3 -5 3 -5 3 -5 3 -5 2 -5 2 -5 2 -5 2 -6 1 -6 1 -6 1 -6 0 -6 0 -6 50 0 0 9 -1 9 -1 8 -1 8 -2 8 -2 8 -3 8 -3 8 -3 7 -4 7 -4 7 -4 7 -5 7 -5 6 -5 6 -6 6 -6 6 -6 5 -6 5 -7 5 -7 4 -7 4 -7 4 -7 3 -8 3 -8 3 -8 2 -8 2 -8 1 -8 1 -9 1 -9 0 0 0zm-2713 -50l2713 0 0 50 -2713 0 0 0 0 -50zm-169 -119l50 0 0 0 0 6 0 6 1 6 1 6 1 6 2 6 2 6 2 5 2 5 3 5 3 5 3 5 3 5 4 4 4 4 4 4 4 4 4 4 4 4 5 3 5 3 5 3 5 3 5 2 5 2 6 2 6 2 6 1 6 1 6 1 6 0 6 0 0 50 -9 0 -9 -1 -8 -1 -8 -1 -8 -2 -8 -2 -8 -3 -8 -3 -7 -3 -7 -4 -7 -4 -7 -4 -7 -5 -6 -5 -6 -5 -6 -6 -6 -6 -5 -6 -5 -6 -5 -7 -4 -7 -4 -7 -4 -7 -3 -7 -3 -8 -3 -8 -2 -8 -2 -8 -1 -8 -1 -8 -1 -9 0 -9 0 0zm50 -3913l0 3913 -50 0 0 -3913 0 0 50 0zm119 -169l0 50 0 0 -6 0 -6 0 -6 1 -6 1 -6 1 -6 2 -5 2 -5 2 -5 2 -5 3 -5 3 -5 3 -5 3 -4 4 -4 4 -4 4 -4 4 -4 4 -4 4 -3 5 -3 5 -3 5 -3 5 -2 5 -2 5 -2 5 -2 6 -1 6 -1 6 -1 6 0 6 0 6 -50 0 0 -9 1 -9 1 -8 1 -8 2 -8 2 -8 3 -8 3 -8 3 -7 4 -7 4 -7 4 -7 5 -7 5 -6 5 -6 6 -6 6 -6 6 -5 6 -5 7 -5 7 -4 7 -4 7 -4 7 -3 8 -3 8 -3 8 -2 8 -2 8 -1 8 -1 9 -1 9 0 0 0z"/>
  </g>
  <g>
   <path class="fil2" d="M2850 285l-2600 0 0 -70 2600 0 35 35 -35 35zm0 -70l35 0 0 35 -35 -35zm-35 3835l0 -3800 70 0 0 3800 -35 35 -35 -35zm70 0l0 35 -35 0 35 -35zm-2635 -35l2600 0 0 70 -2600 0 -35 -35 35 -35zm0 70l-35 0 0 -35 35 35zm35 -3835l0 3800 -70 0 0 -3800 35 -35 35 35zm-70 0l0 -35 35 0 -35 35z"/>
  </g>
  <polygon class="fil3 str0" points="650,3480 697,3633 850,3633 726,3727 774,3880 650,3785 526,3880 574,3727 450,3633 603,3633 "/>
  <polygon class="fil3 str0" points="1250,3480 1297,3633 1450,3633 1326,3727 1374,3880 1250,3785 1126,3880 1174,3727 1050,3633 1203,3633 "/>
  <polygon class="fil3 str0" points="1850,3480 1897,3633 2050,3633 1926,3727 1974,3880 1850,3785 1726,3880 1774,3727 1650,3633 1803,3633 "/>
  <polygon class="fil3 str0" points="2450,3480 2497,3633 2650,3633 2526,3727 2574,3880 2450,3785 2326,3880 2374,3727 2250,3633 2403,3633 "/>
  <polygon class="fil3 str0" points="950,2980 997,3133 1150,3133 1026,3227 1074,3380 950,3285 826,3380 874,3227 750,3133 903,3133 "/>
  <polygon class="fil3 str0" points="1550,2980 1597,3133 1750,3133 1626,3227 1674,3380 1550,3285 1426,3380 1474,3227 1350,3133 1503,3133 "/>
  <polygon class="fil3 str0" points="2150,2980 2197,3133 2350,3133 2226,3227 2274,3380 2150,3285 2026,3380 2074,3227 1950,3133 2103,3133 "/>
  <polygon class="fil3 str0" points="650,2480 697,2633 850,2633 726,2727 774,2880 650,2785 526,2880 574,2727 450,2633 603,2633 "/>
  <polygon class="fil3 str0" points="1250,2480 1297,2633 1450,2633 1326,2727 1374,2880 1250,2785 1126,2880 1174,2727 1050,2633 1203,2633 "/>
  <polygon class="fil3 str0" points="1850,2480 1897,2633 2050,2633 1926,2727 1974,2880 1850,2785 1726,2880 1774,2727 1650,2633 1803,2633 "/>
  <polygon class="fil3 str0" points="2450,2480 2497,2633 2650,2633 2526,2727 2574,2880 2450,2785 2326,2880 2374,2727 2250,2633 2403,2633 "/>
  <polygon class="fil3 str0" points="950,1980 997,2133 1150,2133 1026,2227 1074,2380 950,2285 826,2380 874,2227 750,2133 903,2133 "/>
  <polygon class="fil3 str0" points="1550,1980 1597,2133 1750,2133 1626,2227 1674,2380 1550,2285 1426,2380 1474,2227 1350,2133 1503,2133 "/>
  <polygon class="fil3 str0" points="2150,1980 2197,2133 2350,2133 2226,2227 2274,2380 2150,2285 2026,2380 2074,2227 1950,2133 2103,2133 "/>
  <polygon class="fil3 str0" points="650,1470 697,1623 850,1623 726,1717 774,1870 650,1775 526,1870 574,1717 450,1623 603,1623 "/>
  <polygon class="fil3 str0" points="1250,1470 1297,1623 1450,1623 1326,1717 1374,1870 1250,1775 1126,1870 1174,1717 1050,1623 1203,1623 "/>
  <polygon class="fil3 str0" points="1850,1470 1897,1623 2050,1623 1926,1717 1974,1870 1850,1775 1726,1870 1774,1717 1650,1623 1803,1623 "/>
  <polygon class="fil3 str0" points="2450,1470 2497,1623 2650,1623 2526,1717 2574,1870 2450,1775 2326,1870 2374,1717 2250,1623 2403,1623 "/>
  <polygon class="fil3 str0" points="950,980 997,1133 1150,1133 1026,1227 1074,1380 950,1285 826,1380 874,1227 750,1133 903,1133 "/>
  <polygon class="fil3 str0" points="1550,980 1597,1133 1750,1133 1626,1227 1674,1380 1550,1285 1426,1380 1474,1227 1350,1133 1503,1133 "/>
  <polygon class="fil3 str0" points="2150,980 2197,1133 2350,1133 2226,1227 2274,1380 2150,1285 2026,1380 2074,1227 1950,1133 2103,1133 "/>
  <polygon class="fil3 str0" points="650,430 697,583 850,583 726,677 774,830 650,735 526,830 574,677 450,583 603,583 "/>
  <polygon class="fil3 str0" points="1250,430 1297,583 1450,583 1326,677 1374,830 1250,735 1126,830 1174,677 1050,583 1203,583 "/>
  <polygon class="fil3 str0" points="1850,430 1897,583 2050,583 1926,677 1974,830 1850,735 1726,830 1774,677 1650,583 1803,583 "/>
  <polygon class="fil3 str0" points="2450,430 2497,583 2650,583 2526,677 2574,830 2450,735 2326,830 2374,677 2250,583 2403,583 "/>
 </g>
</svg>
