<?xml version="1.0" encoding="UTF-8"?>
<!DOCTYPE svg PUBLIC "-//W3C//DTD SVG 1.1//EN" "http://www.w3.org/Graphics/SVG/1.1/DTD/svg11.dtd">
<!-- Creator: CorelDRAW X5 -->
<svg xmlns="http://www.w3.org/2000/svg" xml:space="preserve" width="150px" height="160px" style="shape-rendering:geometricPrecision; text-rendering:geometricPrecision; image-rendering:optimizeQuality; fill-rule:evenodd; clip-rule:evenodd"
viewBox="0 0 150 160"
 xmlns:xlink="http://www.w3.org/1999/xlink">
 <defs>
  <style type="text/css">
   <![CDATA[
    .fil0 {fill:black}
   ]]>
  </style>
 </defs>
 <g id="Layer_x0020_1">
  <metadata id="CorelCorpID_0Corel-Layer"/>
  <path class="fil0" d="M56 153c7,-15 13,-30 14,-46 1,-6 -3,-6 -3,-2 -10,40 -66,29 -64,-8 2,-30 32,-37 48,-27 6,4 6,1 2,-2 -23,-26 -9,-60 22,-60 34,2 43,38 22,59 -3,3 -8,11 0,5 21,-15 51,1 50,24 -1,43 -53,46 -65,10 -1,-4 -4,-6 -3,1 2,12 5,31 14,47l-37 0z"/>
 </g>
</svg>
